<?xml version="1.0" ?><!DOCTYPE svg  PUBLIC '-//W3C//DTD SVG 1.1//EN'  'http://www.w3.org/Graphics/SVG/1.1/DTD/svg11.dtd'><svg enable-background="new 0 0 64 64" height="64px" id="Layer_1" version="1.1" viewBox="0 0 64 64" width="64px" xml:space="preserve" xmlns="http://www.w3.org/2000/svg" xmlns:xlink="http://www.w3.org/1999/xlink"><g><path d="M27,27v10.24c0,0,10.352-0.013,14.482-0.013c-2.236,6.792-5.612,10.491-14.174,10.491   c-8.666,0-15.376-7.037-15.376-15.718c0-8.68,6.787-15.717,15.453-15.717c4.581,0,7.553,1.613,10.267,3.86   c2.172-2.176,1.997-2.485,7.523-7.714c-4.691-4.277-10.923-6.886-17.768-6.886C12.82,5.543,0.999,17.388,0.999,32   S12.823,58.576,27.41,58.576C49.21,58.576,54.54,39,52.774,27H27z" fill="#D80B0B"/><polygon fill="#D80B0B" points="57,15 57,9 53,9 53,15 47,15 47,19 53,19 53,25 57,25 57,19 63,19 63,15  "/><g><path d="M6.265,16.147l7.853,7.852c2.656-4.613,7.549-7.716,13.293-7.716c4.581,0,7.54,1.613,10.253,3.86    c2.172-2.176,1.991-2.485,7.517-7.714C40.49,8.152,34.255,5.543,27.411,5.543C18.76,5.543,11.082,9.709,6.265,16.147z" fill="#C10606"/></g><g><path d="M27,27l0.043,10c0,0,10.309,0,14.439,0c-1.285,4-2.802,6.976-5.637,8.721l7.671,7.791    C51.836,47.004,53.975,35,52.774,27H27z" fill="#C10606"/><path d="M37.664,20.144c2.172-2.176,1.991-2.485,7.517-7.714c-1.038-0.946-2.155-1.805-3.333-2.577L33.98,17.72    C35.318,18.37,36.518,19.194,37.664,20.144z" fill="#A80505"/></g><path d="M43.533,39.122l-0.159-0.127c0.003-0.01,0.007,0.005,0.01,0.005c-0.013,0-0.025,0-0.038,0l-1.942-1.76   l-0.629,1.754c0,0,0.004,0,0,0c-2.555,5.864-5.657,8.724-13.467,8.724c-3.06,0-5.77-0.875-8.142-2.393   c2.728,2.549,6.371,4.261,10.441,4.109c7.186-0.269,10.89-3.013,13.08-8.572L43.533,39.122z" fill="#F24033"/><path d="M27,37.24c0,0,2-0.002,14-0.003V27H27V37.24z" fill="#A80505"/><path d="M3.196,33.708c0-14.612,11.825-26.457,26.411-26.457c5.581,0,10.755,1.735,15.018,4.693   C40.002,7.958,33.99,5.543,27.411,5.543C12.824,5.543,1,17.388,1,32c0,9.008,4.498,16.961,11.365,21.739   C6.753,48.887,3.196,41.716,3.196,33.708z" fill="#F24033"/><polygon fill="#C10606" points="57,15.134 52.686,19 53,19 53,25 57,25 57,19 63,19 63,15 57,15  "/></g></svg>